<svg viewBox="0 0 429 77" fill="none" xmlns="http://www.w3.org/2000/svg">
<path d="M0.5 0.5L14.7667 5.25556C29.0333 10.0111 57.5667 19.5222 86.1 19.5222C114.633 19.5222 143.167 10.0111 171.7 6.83083C200.233 3.76945 228.767 6.74167 257.3 17.9469C285.833 29.0333 314.367 48.0556 342.9 54.3864C371.433 60.8361 399.967 54.2972 414.233 51.2358L428.5 48.0556V76.5889H414.233C399.967 76.5889 371.433 76.5889 342.9 76.5889C314.367 76.5889 285.833 76.5889 257.3 76.5889C228.767 76.5889 200.233 76.5889 171.7 76.5889C143.167 76.5889 114.633 76.5889 86.1 76.5889C57.5667 76.5889 29.0333 76.5889 14.7667 76.5889H0.5V0.5Z" fill="white"/>
</svg>
